<?xml version="1.0" encoding="UTF-8" standalone="no"?>
<svg
   xmlns:dc="http://purl.org/dc/elements/1.1/"
   xmlns:cc="http://creativecommons.org/ns#"
   xmlns:rdf="http://www.w3.org/1999/02/22-rdf-syntax-ns#"
   xmlns:svg="http://www.w3.org/2000/svg"
   xmlns="http://www.w3.org/2000/svg"
   viewBox="0 0 1333.3333 1333.3333"
   height="1333.3333"
   width="1333.3333"
   xml:space="preserve"
   id="svg2"
   version="1.1"><metadata
     id="metadata8"><rdf:RDF><cc:Work
         rdf:about=""><dc:format>image/svg+xml</dc:format><dc:type
           rdf:resource="http://purl.org/dc/dcmitype/StillImage" /></cc:Work></rdf:RDF></metadata><defs
     id="defs6"><clipPath
       id="clipPath18"
       clipPathUnits="userSpaceOnUse"><path
         id="path16"
         d="M 0,1000 H 1000 V 0 H 0 Z" /></clipPath><linearGradient
       id="linearGradient42"
       spreadMethod="pad"
       gradientTransform="matrix(0,-200.29205,-200.29205,0,490.96631,872.24127)"
       gradientUnits="userSpaceOnUse"
       y2="0"
       x2="1"
       y1="0"
       x1="0"><stop
         id="stop36"
         offset="0"
         style="stop-opacity:1;stop-color:#36b0e5" /><stop
         id="stop38"
         offset="0.28819037"
         style="stop-opacity:1;stop-color:#36b0e5" /><stop
         id="stop40"
         offset="1"
         style="stop-opacity:1;stop-color:#2f73b7" /></linearGradient><linearGradient
       id="linearGradient64"
       spreadMethod="pad"
       gradientTransform="matrix(0,-484.9082,-484.9082,0,490.96634,811.71332)"
       gradientUnits="userSpaceOnUse"
       y2="0"
       x2="1"
       y1="0"
       x1="0"><stop
         id="stop58"
         offset="0"
         style="stop-opacity:1;stop-color:#36b0e5" /><stop
         id="stop60"
         offset="0.28819037"
         style="stop-opacity:1;stop-color:#36b0e5" /><stop
         id="stop62"
         offset="1"
         style="stop-opacity:1;stop-color:#2f73b7" /></linearGradient><clipPath
       id="clipPath74"
       clipPathUnits="userSpaceOnUse"><path
         id="path72"
         d="M 0,1000 H 1000 V 0 H 0 Z" /></clipPath></defs><g
     transform="matrix(1.3333333,0,0,-1.3333333,0,1333.3333)"
     id="g10"><g
       id="g12"><g
         clip-path="url(#clipPath18)"
         id="g14"><g
           transform="translate(388.7531,812.4613)"
           id="g20"><path
             id="path22"
             style="fill:#6f6f6f;fill-opacity:1;fill-rule:nonzero;stroke:none"
             d="m 0,0 c -0.429,-1.477 -0.797,-2.982 -1.089,-4.519 -5.565,-29.224 15.778,-57.843 47.683,-63.918 1.923,-0.366 3.84,-0.641 5.745,-0.829 -0.894,2.698 -1.855,5.356 -2.883,7.968 C 38.928,-34.481 21.888,-13.394 0,0 m 204.427,0 c 0.429,-1.477 0.796,-2.982 1.089,-4.519 5.565,-29.224 -15.779,-57.843 -47.684,-63.918 -1.922,-0.366 -3.839,-0.641 -5.745,-0.829 0.895,2.698 1.855,5.356 2.883,7.968 10.529,26.817 27.569,47.904 49.457,61.298" /></g></g></g><g
       id="g24"><g
         id="g26"><g
           id="g32"><g
             id="g34"><path
               id="path44"
               style="fill:url(#linearGradient42);stroke:none"
               d="m 561.878,855.473 c -21.324,10.73 -45.414,16.768 -70.912,16.768 v 0 c -25.505,0 -49.588,-6.044 -70.918,-16.768 v 0 c -0.279,0.144 -0.564,0.279 -0.843,0.415 v 0 c -23.329,11.329 -53.138,16.353 -90.583,16.353 v 0 c 17.781,-3.25 39.029,-17.481 60.209,-37.444 v 0 c 2.149,-2.027 4.304,-4.114 6.446,-6.256 v 0 c 45.727,-45.597 89.502,-115.523 95.689,-156.592 v 0 c 6.079,40.376 48.488,108.635 93.371,154.253 v 0 c 2.917,2.964 5.841,5.834 8.771,8.588 v 0 c 21.181,19.97 42.422,34.201 60.203,37.451 v 0 c -37.894,0 -67.989,-5.147 -91.433,-16.768" /></g></g></g></g><g
       id="g46"><g
         id="g48"><g
           id="g54"><g
             id="g56"><path
               id="path66"
               style="fill:url(#linearGradient64);stroke:none"
               d="m 726.037,786.578 c -44.081,1.353 -82.83,2.707 -121.149,-64.872 v 0 C 619.927,652.387 581.852,573.201 490.966,521.643 v 0 C 400.081,573.201 362.005,652.387 377.044,721.706 v 0 c -38.32,67.579 -77.069,66.225 -121.149,64.872 v 0 c -32.703,-1.004 -68.341,-2.008 -108.916,25.136 v 0 C 122.783,519.383 355.66,588.656 431.416,477.482 v 0 c -4.683,-62.008 -65.697,-98.755 -65.697,-98.755 v 0 c 35.307,-51.922 125.247,-51.922 125.247,-51.922 v 0 c 0,0 89.941,0 125.248,51.922 v 0 c 0,0 -61.015,36.747 -65.698,98.755 v 0 c 75.756,111.174 308.633,41.901 284.438,334.232 v 0 C 794.379,784.57 758.74,785.574 726.037,786.578" /></g></g></g></g><g
       id="g68"><g
         clip-path="url(#clipPath74)"
         id="g70"><g
           transform="translate(229.1884,171.3068)"
           id="g76"><path
             id="path78"
             style="fill:#30455d;fill-opacity:1;fill-rule:nonzero;stroke:none"
             d="m 0,0 c 11.731,0 17.298,4.374 17.298,12.924 0,8.35 -6.164,12.327 -17.497,12.327 H -29.426 L -29.426,0 Z M -29.426,76.348 V 52.291 h 25.251 c 11.134,0 16.502,4.176 16.502,11.93 0,8.35 -5.765,12.127 -16.303,12.127 z M 60.443,6.96 c 0,-24.058 -20.479,-38.374 -54.876,-38.374 H -71.577 V 107.764 H 3.977 c 32.011,0 51.098,-12.925 51.098,-35.193 0,-14.712 -8.152,-25.847 -21.672,-31.414 C 50.104,35.788 60.443,23.86 60.443,6.96" /></g><g
           transform="translate(468.7706,279.0703)"
           id="g80"><path
             id="path82"
             style="fill:#30455d;fill-opacity:1;fill-rule:nonzero;stroke:none"
             d="M 0,0 H 45.73 L 0,-139.177 h -44.338 l -23.262,72.968 -23.262,-72.968 h -44.14 L -181.129,0 h 45.73 L -109.155,-85.892 -87.283,0 h 39.367 l 22.069,-85.892 z" /></g><path
           id="path84"
           style="fill:#30455d;fill-opacity:1;fill-rule:nonzero;stroke:none"
           d="m 526.027,279.07 h 43.344 V 139.893 h -43.344 z" /><g
           transform="translate(587.2639,149.0395)"
           id="g86"><path
             id="path88"
             style="fill:#30455d;fill-opacity:1;fill-rule:nonzero;stroke:none"
             d="M 0,0 3.181,34.992 C 16.7,28.233 42.747,22.666 58.852,22.666 c 11.133,0 19.882,1.789 19.882,9.345 0,8.35 -7.158,10.338 -22.666,13.122 -36.385,5.766 -55.869,14.713 -55.869,42.15 0,29.824 29.823,45.531 62.828,45.531 18.69,0 37.18,-3.38 53.087,-10.339 l -3.778,-35.192 c -18.69,7.357 -35.391,10.935 -49.507,10.935 -9.942,0 -16.702,-1.789 -16.702,-9.344 0,-5.964 4.175,-7.953 21.274,-10.936 36.981,-5.964 57.46,-17.099 57.46,-43.94 0,-30.817 -28.829,-46.127 -66.009,-46.127 C 38.372,-12.129 17.497,-8.152 0,0" /></g><g
           transform="translate(769.3821,174.0902)"
           id="g90"><path
             id="path92"
             style="fill:#30455d;fill-opacity:1;fill-rule:nonzero;stroke:none"
             d="M 0,0 H 77.542 V -34.197 H -42.349 V 104.98 H 75.753 V 70.782 H 0 V 52.093 H 66.01 V 20.877 l -66.01,0 z" /></g></g></g></g></svg>