<?xml version="1.0" encoding="utf-8"?>
<!-- Generator: Adobe Illustrator 20.1.0, SVG Export Plug-In . SVG Version: 6.00 Build 0)  -->
<svg version="1.1" id="Layer_1" xmlns="http://www.w3.org/2000/svg" xmlns:xlink="http://www.w3.org/1999/xlink" x="0px" y="0px"
	 width="450px" height="450px" viewBox="0 0 450 450" style="enable-background:new 0 0 450 450;" xml:space="preserve">
<style type="text/css">
	.st0{fill:#959595;}
</style>
<g>
	<g>
		<g>
			<path class="st0" d="M234.5,241.5c-21.5,0-43.1-0.3-64.6,0.2c-6.7,0.1-15.6-7.2-16.6-13.4c-2.4-15.1-5.4-30.1-7.7-45.3
				c-1.5-9.4-3.5-18.7-5.2-28.1c-1.5-8-2.6-16.1-4.2-24.1c-1.5-7.5,2.2-13.4,9.6-15.8c6.6-2.2,13.5-2.5,20.3-3.8
				c11.3-2.1,22.7-4.1,34.1-6.1c13.1-2.3,26.2-4.3,39.3-6.7c12.6-2.2,25.2-4.6,37.7-7.1c6.2-1.2,14,4.9,15.2,11.9
				c0,0.2,0,0.5,0.1,0.8c0.5,3,0.3,6.3,1.6,8.8c1.7,3.2,5.5,1.3,8.4,1.9c5.7,1.2,9.4,4.5,10.9,10.1c0.7,2.4,0.9,4.9,0.9,7.5
				c0,30.5,0,60.9,0,91.4c0,2.5-0.3,5-0.9,7.5c-1.7,6.4-6.5,10.3-13.1,10.3C278.3,241.6,256.4,241.5,234.5,241.5z M234.4,230.3
				c21,0,42,0,63.1,0c5.2,0,5.4-0.2,5.4-5.2c0-31.2,0-62.4,0-93.6c0-5.6-0.6-6.1-6-6.1c-41.5,0-83.1,0-124.6,0
				c-5.3,0-6.1,0.8-6.1,6.2c0,31.1,0,62.2,0,93.3c0,5.2,0.3,5.6,5.6,5.6C192.7,230.3,213.6,230.3,234.4,230.3z M217.1,113.6
				c0.3,1,1,0.9,1.6,0.9c20.1,0,40.3,0,60.4,0c1,0,2.3,0.1,2.7-0.9c1.5-3.3-0.4-6.4-1.3-9.4c-0.6-1.9-2.6-1.4-4.3-1.1
				c-15.8,2.7-31.6,5.4-47.5,8.2C224.9,112,221,112.8,217.1,113.6z M154.4,170.9c0.3,0,0.7,0,1-0.1c0-14.8,0-29.5,0-44.3
				c0-1-0.5-1.6-1.6-1.7c-4.7-0.8-7.1,1.5-6.3,6.2c0.6,3.6,1.4,7.1,2,10.7C151.1,151.4,152.7,161.2,154.4,170.9z"/>
			<path class="st0" d="M234.1,220.4c-17.6,0-35.2,0-52.8,0c-4.8,0-5.2-0.4-5.2-5.1c0-0.3,0-0.5,0-0.8c-1.3-7.4,2.1-12.6,7.4-17.3
				c5.8-5.2,11.2-10.9,16.5-16.5c2.1-2.2,3.7-2.5,5.8-0.1c2.5,2.8,5.3,5.4,7.9,8.1c1.6,1.7,2.8,2,4.7,0.2
				c12.1-12.2,24.3-24.4,36.5-36.6c3.3-3.3,3.4-3.4,6.8,0c9.4,9.4,18.8,18.9,28.3,28.2c2.2,2.2,3.2,4.5,3.1,7.7
				c-0.1,8.8,0,17.6-0.1,26.4c0,5.7-0.2,5.8-6,5.8C269.4,220.4,251.8,220.4,234.1,220.4z"/>
			<path class="st0" d="M192.3,167.5c-8.6,0.4-15.7-7.2-15.9-16.2c-0.2-7,6.7-15.8,16.3-15.6c8.7,0.2,15.9,7.5,15.8,16.3
				C208.4,160.7,201.1,167.6,192.3,167.5z"/>
		</g>
	</g>
	<g>
		<path class="st0" d="M164.2,285h5v22.5h-5l-10.7-14.1v14.1h-5V285h4.7l11.1,14.5V285z"/>
		<path class="st0" d="M191.7,298.9c0,2.5-0.9,4.6-2.6,6.3c-1.7,1.7-3.9,2.6-6.6,2.6c-2.6,0-4.8-0.9-6.6-2.6
			c-1.7-1.7-2.6-3.8-2.6-6.3s0.9-4.6,2.6-6.4c1.7-1.7,3.9-2.6,6.6-2.6c2.6,0,4.8,0.9,6.6,2.6C190.8,294.3,191.7,296.4,191.7,298.9z
			 M178.2,298.9c0,1.4,0.4,2.6,1.2,3.5c0.8,0.9,1.8,1.3,3.1,1.3s2.3-0.4,3.1-1.3s1.2-2,1.2-3.5s-0.4-2.6-1.2-3.5s-1.8-1.4-3.1-1.4
			s-2.3,0.5-3.1,1.4C178.6,296.3,178.2,297.5,178.2,298.9z"/>
		<path class="st0" d="M204.2,285h5v22.5h-5V285z"/>
		<path class="st0" d="M230.3,298.2v9.3h-4.9v-9.5c0-1.4-0.2-2.4-0.6-3s-1.1-1-2-1s-1.8,0.3-2.5,1c-0.7,0.7-1.1,1.7-1.1,3.1v9.3
			h-4.8v-17.3h4.8v2c1.3-1.5,2.9-2.3,4.6-2.3c1.1,0,2.1,0.3,3,1s1.6,1.4,2,2.4c0.7-1.1,1.6-1.9,2.7-2.4c1.1-0.6,2.3-0.9,3.4-0.9
			c2,0,3.7,0.6,4.9,1.8s1.9,3,1.9,5.3v10.5h-4.9v-9.5c0-2.7-1-4-2.9-4c-1,0-1.8,0.3-2.5,1S230.3,296.9,230.3,298.2z"/>
		<path class="st0" d="M260.7,307.6h-4.5v-2.1c-1.2,1.6-2.8,2.4-4.6,2.4c-1.8,0-3.4-0.5-4.6-1.6s-1.9-2.5-1.9-4.3s0.6-3.1,1.9-4
			s3.1-1.3,5.3-1.3h3.6v-0.1c0-1.8-1-2.8-2.9-2.8c-0.8,0-1.7,0.2-2.7,0.5s-1.7,0.7-2.4,1.2l-2.2-3.1c2.3-1.7,4.9-2.5,7.8-2.5
			c2.1,0,3.8,0.5,5.2,1.6c1.3,1.1,2,2.7,2,5V307.6z M255.9,301v-0.8h-3c-1.9,0-2.9,0.6-2.9,1.8c0,0.6,0.2,1.1,0.7,1.4s1.1,0.5,2,0.5
			s1.6-0.3,2.3-0.8C255.5,302.5,255.9,301.8,255.9,301z"/>
		<path class="st0" d="M278,304.6c-1.5,1.7-3.4,2.5-5.7,2.5c-2.3,0-4.2-0.8-5.7-2.3c-1.6-1.5-2.3-3.6-2.3-6.2s0.8-4.7,2.4-6.3
			s3.4-2.5,5.5-2.5s3.8,0.8,5.1,2.5v-2.3h4.8v15.1c0,1.5-0.3,2.9-0.8,4.1s-1.3,2.1-2.2,2.8c-1.8,1.4-3.9,2.1-6.3,2.1
			c-1.3,0-2.6-0.2-3.9-0.6s-2.5-1-3.5-1.8l1.9-3.6c1.6,1.2,3.3,1.8,5,1.8c1.8,0,3.2-0.4,4.2-1.3C277.5,307.9,278,306.5,278,304.6z
			 M277.3,298.5c0-1.4-0.4-2.5-1.2-3.3s-1.7-1.2-2.9-1.2s-2.1,0.4-2.9,1.2s-1.2,1.9-1.2,3.3s0.4,2.5,1.2,3.3s1.8,1.3,2.9,1.3
			s2.1-0.4,2.9-1.3S277.3,299.9,277.3,298.5z"/>
		<path class="st0" d="M301.7,305c-2,1.8-4.2,2.8-6.9,2.8c-2.6,0-4.8-0.8-6.5-2.4c-1.7-1.6-2.6-3.8-2.6-6.5c0-2.7,0.9-4.9,2.6-6.5
			c1.8-1.6,3.8-2.4,6.2-2.4s4.4,0.7,6.1,2.2c1.7,1.4,2.5,3.4,2.5,5.9v2.6h-12.6c0.1,0.9,0.6,1.7,1.5,2.3s1.8,0.9,2.8,0.9
			c1.7,0,3.1-0.6,4.2-1.7L301.7,305z M297,294.8c-0.7-0.6-1.5-0.8-2.4-0.8c-1,0-1.8,0.3-2.6,0.9s-1.3,1.4-1.4,2.4h7.6
			C298.1,296.1,297.7,295.3,297,294.8z"/>
		<path class="st0" d="M169,350.6l-2.1-4.9h-9.4l-2.1,4.9h-5.4l9.7-22.5h4.9l9.7,22.5H169z M162.2,334.8l-2.8,6.5h5.6L162.2,334.8z"
			/>
		<path class="st0" d="M180.2,350.6l-6.9-17.4h5l4.3,10.9l4.3-10.9h5l-6.9,17.4H180.2z"/>
		<path class="st0" d="M208.9,350.6h-4.5v-2.1c-1.2,1.6-2.8,2.4-4.6,2.4c-1.8,0-3.4-0.5-4.6-1.6c-1.2-1.1-1.9-2.5-1.9-4.3
			s0.6-3.1,1.9-4c1.3-0.9,3.1-1.3,5.3-1.3h3.6v-0.1c0-1.8-1-2.8-2.9-2.8c-0.8,0-1.7,0.2-2.7,0.5c-0.9,0.3-1.7,0.7-2.4,1.2l-2.2-3.1
			c2.3-1.7,4.9-2.5,7.8-2.5c2.1,0,3.8,0.5,5.2,1.6c1.3,1.1,2,2.7,2,5V350.6z M204,344v-0.8h-3c-1.9,0-2.9,0.6-2.9,1.8
			c0,0.6,0.2,1.1,0.7,1.4s1.1,0.5,2,0.5c0.9,0,1.6-0.3,2.3-0.8S204,344.9,204,344z"/>
		<path class="st0" d="M213.7,331.1c-0.5-0.5-0.8-1.2-0.8-2s0.3-1.5,0.8-2c0.5-0.5,1.2-0.8,2-0.8c0.8,0,1.5,0.3,2,0.8
			c0.5,0.5,0.8,1.2,0.8,2s-0.3,1.5-0.8,2c-0.5,0.5-1.2,0.8-2,0.8C214.9,331.9,214.3,331.6,213.7,331.1z M218.2,350.6h-4.8v-17.3h4.8
			V350.6z"/>
		<path class="st0" d="M227.6,350.6h-4.8v-23.9h4.8V350.6z"/>
		<path class="st0" d="M246.9,350.6h-4.5v-2.1c-1.2,1.6-2.8,2.4-4.6,2.4c-1.8,0-3.4-0.5-4.6-1.6s-1.9-2.5-1.9-4.3s0.6-3.1,1.9-4
			s3.1-1.3,5.3-1.3h3.6v-0.1c0-1.8-1-2.8-2.9-2.8c-0.8,0-1.7,0.2-2.7,0.5s-1.7,0.7-2.4,1.2l-2.2-3.1c2.3-1.7,4.9-2.5,7.8-2.5
			c2.1,0,3.8,0.5,5.2,1.6c1.3,1.1,2,2.7,2,5V350.6z M242,344v-0.8h-3c-1.9,0-2.9,0.6-2.9,1.8c0,0.6,0.2,1.1,0.7,1.4s1.1,0.5,2,0.5
			s1.6-0.3,2.3-0.8C241.7,345.6,242,344.9,242,344z"/>
		<path class="st0" d="M261.3,333c2.1,0,3.9,0.8,5.5,2.5s2.4,3.8,2.4,6.3s-0.8,4.7-2.4,6.5s-3.4,2.6-5.5,2.6c-2.1,0-3.8-0.8-5.1-2.5
			v2.3h-4.8v-23.9h4.8v8.5C257.5,333.7,259.2,333,261.3,333z M256.1,342c0,1.4,0.4,2.6,1.2,3.4s1.7,1.3,2.9,1.3s2.1-0.4,2.9-1.3
			c0.8-0.9,1.3-2,1.3-3.4c0-1.4-0.4-2.6-1.2-3.5s-1.8-1.4-2.9-1.4s-2.1,0.5-2.9,1.4S256.1,340.5,256.1,342z"/>
		<path class="st0" d="M277.6,350.6h-4.8v-23.9h4.8V350.6z"/>
		<path class="st0" d="M297.2,348.1c-2,1.8-4.2,2.8-6.9,2.8c-2.6,0-4.8-0.8-6.5-2.4c-1.7-1.6-2.6-3.8-2.6-6.5c0-2.7,0.9-4.9,2.6-6.5
			c1.8-1.6,3.8-2.4,6.2-2.4s4.4,0.7,6.1,2.2c1.7,1.4,2.5,3.4,2.5,5.9v2.6H286c0.1,0.9,0.6,1.7,1.5,2.3s1.8,0.9,2.8,0.9
			c1.7,0,3.1-0.6,4.2-1.7L297.2,348.1z M292.5,337.8c-0.7-0.6-1.5-0.8-2.4-0.8c-1,0-1.8,0.3-2.6,0.9s-1.3,1.4-1.4,2.4h7.6
			C293.6,339.2,293.2,338.4,292.5,337.8z"/>
	</g>
</g>
</svg>
